<?xml version="1.0" standalone="no"?>
<!DOCTYPE svg PUBLIC "-//W3C//DTD SVG 20010904//EN"
 "http://www.w3.org/TR/2001/REC-SVG-20010904/DTD/svg10.dtd">
<svg version="1.0" xmlns="http://www.w3.org/2000/svg"
 width="239.000000pt" height="239.000000pt" viewBox="0 0 239.000000 239.000000"
 preserveAspectRatio="xMidYMid meet">
<metadata>
Created by potrace 1.11, written by Peter Selinger 2001-2013
</metadata>
<g transform="translate(0.000000,239.000000) scale(0.100000,-0.100000)"
fill="#000000" stroke="none">
<path d="M1148 2345 c-2 -1 -30 -6 -63 -9 -53 -6 -93 -13 -172 -31 -12 -3 -35
-10 -50 -17 -16 -6 -36 -13 -47 -15 -37 -7 -217 -106 -283 -156 -148 -112
-259 -243 -336 -397 -12 -25 -26 -48 -31 -51 -5 -4 -6 -11 -2 -17 3 -6 2 -12
-2 -14 -13 -5 -69 -187 -76 -243 -3 -27 -8 -61 -11 -75 -7 -30 -6 -203 0 -245
3 -16 8 -52 11 -80 3 -27 8 -57 11 -65 7 -19 11 -29 16 -56 3 -11 12 -37 21
-58 9 -21 16 -47 16 -57 0 -11 4 -19 9 -19 7 0 24 -42 18 -46 -1 -1 5 -10 14
-20 9 -11 27 -39 40 -64 13 -25 29 -51 36 -58 7 -7 20 -26 30 -42 9 -17 21
-30 26 -30 4 0 5 -5 2 -10 -3 -6 1 -10 9 -10 9 0 16 -3 16 -8 0 -4 11 -19 24
-34 14 -14 22 -29 19 -32 -4 -3 0 -6 8 -6 8 0 23 -11 33 -25 10 -13 22 -22 27
-19 5 3 9 -2 9 -10 0 -8 9 -18 20 -21 11 -3 20 -11 20 -16 0 -5 5 -9 10 -9 6
0 20 -9 32 -20 12 -11 28 -20 35 -20 7 0 13 -4 13 -10 0 -5 7 -10 15 -10 8 0
15 -4 15 -10 0 -5 7 -10 15 -10 9 0 18 -7 21 -15 4 -8 10 -12 15 -9 5 3 9 1 9
-5 0 -6 6 -8 14 -5 7 3 21 -2 30 -11 9 -9 16 -13 16 -9 0 3 6 1 13 -5 8 -6 17
-8 20 -4 4 3 7 2 7 -4 0 -9 54 -28 73 -24 4 0 7 -3 7 -8 0 -5 6 -8 13 -8 23 2
87 -15 87 -23 0 -4 18 -7 40 -6 24 2 45 -3 51 -11 7 -7 17 -13 23 -13 6 0 4 5
-4 10 -12 8 -11 10 8 10 12 0 22 -3 22 -7 0 -9 158 -8 229 1 28 3 50 1 60 -7
10 -8 13 -8 8 0 -4 7 5 15 23 22 21 7 30 7 30 -1 0 -7 5 -6 15 2 8 7 28 13 45
15 16 1 35 7 42 12 21 16 57 22 62 9 2 -6 5 -2 5 8 1 11 4 16 8 13 3 -4 12 -2
20 4 10 9 13 8 13 0 0 -7 5 -9 10 -6 6 4 7 11 4 17 -5 7 -1 9 9 5 10 -3 17 -2
17 3 0 6 7 10 15 10 8 0 15 5 15 10 0 6 9 10 20 10 11 0 20 5 20 10 0 6 6 10
14 10 7 0 19 7 26 15 7 8 16 12 21 9 5 -3 9 0 9 6 0 6 8 14 18 17 9 4 23 13
30 20 8 7 18 10 24 7 7 -5 8 -2 4 5 -5 8 0 14 13 18 12 3 21 9 21 14 0 5 15
18 33 29 17 11 28 20 24 20 -4 0 -2 6 5 14 7 8 16 12 21 9 4 -2 7 3 7 12 0 9
4 14 9 11 5 -3 11 4 14 15 4 15 11 20 22 15 9 -3 13 -2 10 4 -8 13 30 62 40
52 3 -4 6 -2 5 3 -4 20 0 36 8 31 5 -3 15 10 22 29 8 19 18 35 22 35 5 0 6 5
3 10 -3 6 -1 10 5 10 9 0 26 31 28 53 1 4 8 15 17 23 8 9 15 24 15 35 0 10 5
19 10 19 6 0 10 9 10 21 0 11 4 18 9 15 5 -4 7 2 4 13 -3 11 2 21 12 25 14 5
15 9 5 21 -7 8 -8 15 -3 15 5 0 10 6 11 13 0 6 3 21 6 32 2 11 5 28 5 38 1 10
4 16 9 14 4 -3 7 9 8 26 0 18 5 59 9 92 16 112 6 298 -21 387 -8 25 -16 62
-16 76 -1 6 -4 12 -8 12 -3 0 -6 10 -7 21 -2 23 -15 54 -66 157 -17 34 -35 62
-40 62 -4 0 -6 4 -2 9 3 5 -1 15 -8 23 -7 7 -20 26 -30 41 -10 16 -28 41 -40
55 -29 35 -179 184 -198 197 -9 6 -42 28 -75 49 -66 45 -182 106 -199 106 -7
0 -26 7 -43 15 -34 17 -113 39 -182 50 -25 4 -54 9 -65 12 -23 4 -213 12 -217
8z"/>
<path d="M1186 28 c3 -5 10 -6 15 -3 13 9 11 12 -6 12 -8 0 -12 -4 -9 -9z"/>
</g>
</svg>
